<?xml version="1.0" encoding="UTF-8"?>
<svg id="Layer_1" xmlns="http://www.w3.org/2000/svg" version="1.1" viewBox="0 0 576 576">
  <!-- Generator: Adobe Illustrator 29.5.0, SVG Export Plug-In . SVG Version: 2.1.0 Build 137)  -->
  <path d="M329.13,290.55c2.5,2.29-.07,5.23-.78,7.8-.43,1.58-2.19,8.52-2.33,9.98-.23,2.3.6,4.77.7,7.03.25,5.6.61,5.21,3.44,10.4,2.73,5.02,10.67,18.65,16.61,9.73,2.52-3.79.52-4.6-.09-8.01-1.13-6.41-1.13-10.74-4.36-16.76-2.93-5.45-8.29-8.23-3.84-14.72,2.1-3.06,14.77-9.31,18.66-10.62,13.53-4.58,36.48-3.27,46.31,8.37,3.95,4.69,5.14,10.9,8.68,15.8,6.39,8.85,8.49-1.94,11.33-6.82,9.17-15.74,36.37-21.7,52.81-16.52,13.49,4.25,6.96,11.26,3.73,20.26-3.22,8.96-5.11,21.43-1.04,30.34,1.45,3.19,6.66,9.14,10.91,6.88,2.92-1.55-.54-4.9-1.43-11.78-1.26-9.81,3.11-23.33,7.18-32.39,2.18-4.86,7.28-11.67,13.37-8.11,4.26,2.5-1.88,10.62-3.37,13-2.8,4.48-5.78,11.2-4.53,16.39.54,2.27,1.45,2.18,3.84,2.09,4.98-.19,22.3-7.24,27.73-9.85,3.14-1.51,11.14-4.94,11.13-8.97-.01-3.69-9.05-12.25-.53-13.57,5.23-.81,7.61,2.12,9.97,6.12,4.28,7.25,8.33,19.23,8.41,27.63,0,.76-.99,2.63-1.33,5.38-.37,2.98,0,4.72.08,6.52.24,4.94-1.63,10.61-5.23,14.25-.53.53-4.98,4.97-8.29,3.53-.68-.29-1.3-.81-1.83-1.59-2.35-3.49,1.03-6.85,2.2-9.86,2.13-5.44,5.56-22.1-3.11-22.84-5.68-.48-21.54,7.36-27.32,10.17-2.77,1.35-11.92,5.31-12.9,7.73-2.2,5.42,5.86,10.74,3.44,14-1.56,2.11-11.27-.52-14.6-.2-5.23.51-8.8,4.3-14.33.88-3.36-2.08-9.07-11.74-9.87-15.58-.76-3.66.34-8.9-3.69-11.13-4.68-2.59-12.64,1.81-17.59,3.4-4.7,1.51-13.4,2.83-17.15,5.89-4.45,3.63-.25,11.43-2.89,14.39-1.78,2-5.77,1.3-7.53-.41-2.91-2.83-1.84-8.18-4.72-10.87-1.99,2.23-2.45,5.11-4.36,7.63-3.24,4.27-10.04,8.48-15.44,5.95-2.82-1.32,2.25-6.15,3.15-7.68,9.15-15.45,5.82-26.36-2.71-40.8-6.53-11.04-20.81-12.24-32.25-8.56-25.48,8.2,2.01,33.93-8.45,52.51-3.89,6.91-10.41,2.42-15.36.59-10.06-3.72-18.65,6.69-28.41,7.97-13.34,1.74-24.18-2.52-35.22-12.5-4.15-3.75-5.51-19.88-14-14.64-3.05,1.89-6.3,8.95-8.98,12.15-24.1,28.77-92.5,29.8-106.78-10.31-2.08-5.85-.5-8.29-.71-13.69-.2-5.19-4.15-15.16,5.45-14.11,8,.88,3.73,12.49,4.19,16.96,4.19,41.16,73.56,41.96,92.78,11.29,2.17-3.46,5.02-11.74,5.83-15.77,1.51-7.51-8.49-22.28-13.46-27.88-29.09-32.71-85.82-61.31-129.18-66.18-8.94-1-22.41-.49-30.53-2.59-4.51-1.17-6.88-4.98-1.67-7.16,7.79-3.25,29.52-.68,38.41.65,43.28,6.47,88.35,27.38,120.09,57.51,5.21,4.95,13.24,13.05,17.04,18.96,3.32,5.17,5.47,15.26,13.56,13.58,4.84-1.01,4.06-5.83,5.72-9.16,1.88-3.79,6.38-6.74,10.68-6.05,5.63.89-.58,9.06-1.73,11.64-1.02,2.28-2.61,8.6-2.92,10.69-.3,2.08-1.59,8.5-1.77,9.6-1.4,8.45,2.27,13.56,6.33,17.49,9.25,8.95,24.7,12.9,32.52,5.63,7.26-6.75,3.42-10.21,2.03-14.64-2.22-7.09-7.14-29.04,1.12-35.14,2.41-1.78,6.89-3.41,9.18-1.32ZM460.22,293.9c-9.4.27-25.1,8.82-28.64,17.92-1.17,3-1.51,7.33,2.55,7.88,6.59.89,29.61-5.43,34.09-10.6,5.99-6.9,1.05-15.47-8.01-15.21Z"/>
  <path d="M81.02,226.7c28.27-2.21,64.48,5.34,86.02,24.57,6.62,5.91,9.94,10.81.62,16.47-9.61,5.84-17.55,9.76-24.06,19.62-3.15,4.77-7.44,15.43-7.78,21.05-.09,1.55.73,10.72,1,12.43.29,1.87,2.45,4.3,3.22,6.38,1.21,3.29,1.5,6.51,2.98,9.98,3.72,8.7,8.84,12.02-1.95,18.68-34.94,21.55-90.53,8.69-117.07-21.09-2.16-2.42-9.78-11.68-8.94-14.64,1.07-3.78,13.04-7.01,16.63-8.85,8.31-4.26,19.84-16,23.25-24.75,2.46-6.33,1.59-9.85,2.17-16.07.18-1.95,1.34-4.3,1.27-6.17-.09-2.26-2.33-5.45-2.97-7.97-.56-2.21-.4-4.57-1.28-6.88-1.78-4.68-8.91-10.09-2.27-14.95,5.28-3.87,22.41-7.28,29.15-7.81ZM84.38,235.34c-5.6.37-18.37,1.65-20.65,7.67-1.5,3.97,1.74,7.93,2.75,11.86,5.66,21.98-1.97,45.6-20.46,58.75-10.55,7.5-22.27,8.33-7.15,21.66,11.74,10.35,35.04,20.82,50.65,21.83,10.59.68,30.58-.62,39.56-6.51,9.29-6.11-.04-13.56-1.29-20.23-.47-2.5.15-5.42-.17-7.99-.42-3.46-3.85-5.49-1.83-9.14,2.26-4.06.36-6.42.95-11.05.19-1.49,1.52-2.68,1.78-3.98.33-1.64-.1-3.22.33-4.95,1.64-6.5,10.88-18.37,15.83-23.05,6.42-6.07,17.37-8.5,6.03-17.98-14.6-12.2-47.75-18.13-66.34-16.89Z"/>
</svg>