<?xml version="1.0" encoding="UTF-8"?>
<svg id="Layer_1" xmlns="http://www.w3.org/2000/svg" version="1.1" viewBox="0 0 576 576">
  <!-- Generator: Adobe Illustrator 29.5.0, SVG Export Plug-In . SVG Version: 2.1.0 Build 137)  -->
  <path d="M238.06,175.53c49.62-13.71,119.29-13.27,169.29,11.5,15.35,7.51,24.17,14.45,10.65,27.01-13.92,13.06-25.94,22.43-31.93,41.2-2.9,9.1-4.42,28.44-1.77,37.9.74,2.6,7.52,17.47,9,20.19,1.6,2.97,6.88,6.12,9.47,9.24,4.07,4.93,6.45,10.12,11.11,15.22,11.69,12.75,22.78,16.07,7.29,31.46-50.07,50.69-156.87,54.45-221.76,15.64-5.29-3.2-24.37-15.8-24.61-21.32-.32-7.04,19.19-17.89,24.53-22.63,12.37-10.92,26.12-35.98,27.08-52.43.69-11.88-2.94-17.59-5.56-28.54-.82-3.43-.13-7.94-1.35-11.14-1.49-3.86-7.39-8.5-10.03-12.61-2.31-3.61-3.41-7.75-6.36-11.42-5.96-7.44-21.97-14.14-12.91-25.1,7.21-8.69,36.02-20.84,47.84-24.17h.02ZM249.19,189.18c-9.86,2.67-32.08,9.56-32.63,20.82-.36,7.43,7.8,13.04,11.93,19.43,23.08,35.55,23.26,79.02-2.15,109.34-14.47,17.47-34.95,24.07-.07,40.29,27.06,12.43,74.83,19.72,103.33,14.48,19.34-3.52,54.36-14.35,67.03-27.9,13.11-13.94-7.92-22.37-14.02-32.89-2.29-3.95-2.87-9.04-4.94-13.17-2.76-5.57-10.09-7.57-8.58-14.45,1.7-7.65-3.08-10.83-4.71-18.77-.52-2.56,1.17-5.06.89-7.32-.36-2.86-2.05-5.33-2.28-8.38-.83-11.47,8.89-34.71,15.08-44.31,8.03-12.4,26.34-20.29.42-32.09-33.4-15.37-96.58-13.83-129.31-5.06h.02Z"/>
</svg>