<?xml version="1.0" encoding="UTF-8"?>
<svg id="Layer_1" xmlns="http://www.w3.org/2000/svg" version="1.1" viewBox="16 0 307.15 307.15">
  <!-- Generator: Adobe Illustrator 29.5.0, SVG Export Plug-In . SVG Version: 2.1.0 Build 137)  -->
  <path d="M263.33,50.41c-3.82,4.93-11.07,10.13-15.6,14.9-14.22,15-18.62,29.95-17.41,50.7.43,7.38,5.01,17.43,8.54,23.99,2.16,4.02,5.44,5.38,8.32,8.37,3.09,3.21,5.52,8.33,8.49,11.94,3.24,3.94,7.64,7.07,10.79,10.8,3.76,4.45,2.65,6.5-.86,10.66-16.34,19.32-47.3,30.64-71.71,34.51-41.11,6.52-95.71-1.76-128.06-29.63-1.04-.9-4.88-4.3-4.77-5.58.26-3.1,13.06-11.29,15.93-13.46,14.4-10.88,28.73-36.15,27.56-54.51-.43-6.68-3.14-11.99-4.54-18.2-.89-3.94-.26-8.07-1.75-11.78-1.59-3.93-5.98-6.9-8.35-10.36-2.09-3.05-3.08-6.7-5.4-9.86-2.75-3.74-11.84-9.58-12.66-13.25-.92-4.08,5.23-7.86,8.19-9.7,40.17-24.97,106.92-26.63,151.22-12.98,8.98,2.77,21.09,7.4,28.88,12.57,4.63,3.07,7.11,5.78,3.19,10.84ZM94.65,163.26c-5.98,6.25-18.12,14.14-10.38,23.97,6.78,8.61,28.01,15.46,38.57,18.14,22.77,5.76,50.08,8.62,73.14,3.23,14.59-3.41,41.92-12.24,51.77-23.65,11.06-12.81-2.87-19.98-9.94-28.35-4.44-5.26-3.79-11.6-8.19-16.85-1.36-1.62-4.91-4.04-4.9-6.19.01-1.88.67-3.73.4-6.01-.42-3.54-4.62-9.82-4.23-12.62.29-2.09.82-3.73.71-6.08-.09-1.81-1.76-4.19-1.93-6.65-.56-8.38,8.16-29.09,13.19-36.06,6.3-8.72,19.06-16.5,5.05-26.51-18.3-13.08-55.22-14.36-77.08-13.57-18.42.66-50.81,3.67-65.35,15.83-13.63,11.4-.04,20.33,6.01,29.95,18.54,29.5,17.71,65.77-6.84,91.42Z"/>
  <path d="M250.77,255.45c1.54.96,12.71-3.57,14.83-4.51,1.82-.81,8.14-3.46,8.13-5.66,0-1.78-4.6-6.16-1.13-7.77,1.71-.8,3.48-.59,4.99.48,3.48,2.46,7.13,13.73,7.12,17.94,0,1.83-.86,3.48-.9,5.18-.08,3.29.67,4.78-.99,8.2-1.09,2.23-4.96,6.16-7.61,4.45-2.86-1.85.14-5.77.85-8.04.85-2.69,2.36-10.87-1.87-11.11-3.26-.19-13.35,4.72-16.67,6.4-1.2.61-5.24,2.46-5.59,3.62-.8,2.64,3.49,5.55,1.98,7.95-.84,1.33-6.93-.17-8.5-.11-3.54.13-5.77,3.31-9.53-.26-3.45-3.28-4.41-7.24-5.05-11.65-.86-5.91-8.01-1.67-11.27-.67-2.45.75-8.66,1.72-9.96,3.85-1.63,2.67,1.83,9.4-4.44,8.09-3.06-.64-2.69-4.37-3.81-6.55-1.8,4.01-5.6,8.72-10.59,7.7-3.94-.8.5-4.92,1.47-6.75,2.92-5.52,2.77-10.44.39-16.12-3.79-9.03-9.87-12.95-19.84-9.96-14.27,4.29.05,18.66-4.71,28.97-3.02,6.52-7.94.67-12.18.75-4,.07-8.26,3.92-12.19,4.82-7.03,1.61-14.95-1.07-20.21-5.81-3.29-2.96-2.89-5.57-5.05-8.48-3.43-4.6-6.63,3.6-8.48,5.88-12.8,15.73-48.59,16.68-59.41-1.89-2.92-5.01-2.11-6.07-2.18-11.35-.05-3.54-2.78-9.84,3.61-9.07,4.83.58,2.41,7.52,2.73,10.8,2.18,22.66,48.1,24.21,54.49-1.93.99-4.03-.73-7.23-2.73-10.68-12.47-21.5-54.23-41.49-78.39-43.66-5.03-.45-11.77.12-16.49-1.35-2.13-.67-3.95-2.69-1.64-4.41,3.89-2.89,19.58-.75,24.67.08,24.08,3.93,49.2,15.92,66.88,32.73,3.24,3.08,7.48,7.45,9.76,11.26,1.52,2.54,2.68,7.46,6.57,6.82,2.52-.41,2.21-3.36,3.15-5.21,1.16-2.3,5.18-4.67,7.55-3.05,2.04,1.4-1.53,6.16-2.15,7.88-1.17,3.25-2.8,11.51-2.05,14.74,1.72,7.35,16.05,14.1,21.78,7.59,2.95-3.35.84-4.98-.12-8.52-1.52-5.62-4.13-20.33,5.06-20.45,4.44-.06,1.95,4.43,1.39,6.52-1.55,5.84-1.39,9.79,1.64,15.05,1.34,2.33,5.08,8.58,8,4.95,1.57-1.95.48-2.36.14-4.16-.51-2.66-.67-5.3-1.64-7.86-1.77-4.63-7.39-7.62-1.18-12.25,9.89-7.38,30.3-9.44,37.28,2.64,1,1.74,3.22,8.16,5.3,8.26,2.27-.6,2.64-3.77,3.8-5.67,5.5-8.98,22.88-13.12,32.12-8.69,5.7,2.74,2.19,6.93.75,11.04-1.89,5.38-4.17,18.46,2.96,20.94,4.05,1.41,1.03-3.94.82-5.71-.57-4.88.67-10.08,2.27-14.66,1.22-3.5,3.9-10.77,8.66-9.8,5.88,1.19-.65,8.48-1.79,11.19-.94,2.23-1.61,4.69-.77,7.06ZM226.2,240.02c-4.7.43-12.88,4.89-14.87,9.32-.65,1.45-1.37,3.89.74,4.36,3.27.73,16.22-3.15,18.77-5.58,3.85-3.68.4-8.56-4.64-8.1Z"/>
</svg>